# xmcd
#
# Track frame offsets: 
#        150
#        17940
#        40680
#        54999
#        74748
#        93787
#        127165
#        157480
#
# Disc length: 2283 seconds
#
# Revision: 0
# Processed by: cddbd v1.5.2PL0 Copyright (c) Steve Scherf et al.
# Submitted via: ExactAudioCopy v1.0b3
#
DISCID=7108e908
DTITLE=Deep In The Top - Blues In Different Colours
DYEAR=2016
DGENRE=Blues
TTITLE0=Greed
TTITLE1=Girls
TTITLE2=Tell Me That You Love Me (And I'm Good)
TTITLE3=Sinner Man
TTITLE4=Damned If You Do, Damned If You Don't
TTITLE5=Loafer
TTITLE6=5 Minutes Past 8
TTITLE7=All The Time In The World
EXTD=
EXTT0=
EXTT1=
EXTT2=
EXTT3=
EXTT4=
EXTT5=
EXTT6=
EXTT7=
PLAYORDER=
